<?xml version="1.0" encoding="UTF-8" standalone="no"?><svg xmlns="http://www.w3.org/2000/svg" xmlns:xlink="http://www.w3.org/1999/xlink" contentStyleType="text/css" height="771px" preserveAspectRatio="none" style="width:593px;height:771px;background:#FFFFFF;" version="1.1" viewBox="0 0 593 771" width="593px" zoomAndPan="magnify"><defs/><g><rect fill="#FFFFFF" height="556.4844" style="stroke:#181818;stroke-width:1.0;" width="10" x="164" y="114.9609"/><rect fill="#FFFFFF" height="493.4297" style="stroke:#181818;stroke-width:1.0;" width="10" x="324" y="187.0156"/><rect fill="#FFFFFF" height="136.2422" style="stroke:#181818;stroke-width:1.0;" width="10" x="510" y="217.3672"/><rect fill="none" height="512.1328" style="stroke:#000000;stroke-width:1.5;" width="576" x="10" y="129.9609"/><line style="stroke:#181818;stroke-width:0.5;stroke-dasharray:5.0,5.0;" x1="54" x2="54" y1="82.6094" y2="689.4453"/><line style="stroke:#181818;stroke-width:0.5;stroke-dasharray:5.0,5.0;" x1="168.5" x2="168.5" y1="82.6094" y2="689.4453"/><line style="stroke:#181818;stroke-width:0.5;stroke-dasharray:5.0,5.0;" x1="328.5" x2="328.5" y1="82.6094" y2="689.4453"/><line style="stroke:#181818;stroke-width:0.5;stroke-dasharray:5.0,5.0;" x1="514.5" x2="514.5" y1="82.6094" y2="689.4453"/><text fill="#000000" font-family="sans-serif" font-size="14" lengthAdjust="spacing" textLength="62" x="20" y="79.5332">Web User</text><ellipse cx="54" cy="13.5" fill="#E2E2F0" rx="8" ry="8" style="stroke:#181818;stroke-width:0.5;"/><path d="M54,21.5 L54,48.5 M41,29.5 L67,29.5 M54,48.5 L41,63.5 M54,48.5 L67,63.5 " fill="none" style="stroke:#181818;stroke-width:0.5;"/><text fill="#000000" font-family="sans-serif" font-size="14" lengthAdjust="spacing" textLength="62" x="20" y="702.9785">Web User</text><ellipse cx="54" cy="714.5547" fill="#E2E2F0" rx="8" ry="8" style="stroke:#181818;stroke-width:0.5;"/><path d="M54,722.5547 L54,749.5547 M41,730.5547 L67,730.5547 M54,749.5547 L41,764.5547 M54,749.5547 L67,764.5547 " fill="none" style="stroke:#181818;stroke-width:0.5;"/><rect fill="#E2E2F0" height="31.6094" rx="2.5" ry="2.5" style="stroke:#181818;stroke-width:0.5;" width="77" x="130.5" y="50"/><text fill="#000000" font-family="sans-serif" font-size="14" lengthAdjust="spacing" textLength="63" x="137.5" y="71.5332">Front End</text><rect fill="#E2E2F0" height="31.6094" rx="2.5" ry="2.5" style="stroke:#181818;stroke-width:0.5;" width="77" x="130.5" y="688.4453"/><text fill="#000000" font-family="sans-serif" font-size="14" lengthAdjust="spacing" textLength="63" x="137.5" y="709.9785">Front End</text><rect fill="#E2E2F0" height="31.6094" rx="2.5" ry="2.5" style="stroke:#181818;stroke-width:0.5;" width="69" x="294.5" y="50"/><text fill="#000000" font-family="sans-serif" font-size="14" lengthAdjust="spacing" textLength="55" x="301.5" y="71.5332">Gateway</text><rect fill="#E2E2F0" height="31.6094" rx="2.5" ry="2.5" style="stroke:#181818;stroke-width:0.5;" width="69" x="294.5" y="688.4453"/><text fill="#000000" font-family="sans-serif" font-size="14" lengthAdjust="spacing" textLength="55" x="301.5" y="709.9785">Gateway</text><rect fill="#E2E2F0" height="49.2188" rx="2.5" ry="2.5" style="stroke:#181818;stroke-width:0.5;" width="59" x="485.5" y="32.3906"/><text fill="#000000" font-family="sans-serif" font-size="14" lengthAdjust="spacing" textLength="45" x="492.5" y="53.9238">Identity</text><text fill="#000000" font-family="sans-serif" font-size="14" lengthAdjust="spacing" textLength="42" x="494" y="71.5332">Server</text><rect fill="#E2E2F0" height="49.2188" rx="2.5" ry="2.5" style="stroke:#181818;stroke-width:0.5;" width="59" x="485.5" y="688.4453"/><text fill="#000000" font-family="sans-serif" font-size="14" lengthAdjust="spacing" textLength="45" x="492.5" y="709.9785">Identity</text><text fill="#000000" font-family="sans-serif" font-size="14" lengthAdjust="spacing" textLength="42" x="494" y="727.5879">Server</text><rect fill="#FFFFFF" height="556.4844" style="stroke:#181818;stroke-width:1.0;" width="10" x="164" y="114.9609"/><rect fill="#FFFFFF" height="493.4297" style="stroke:#181818;stroke-width:1.0;" width="10" x="324" y="187.0156"/><rect fill="#FFFFFF" height="136.2422" style="stroke:#181818;stroke-width:1.0;" width="10" x="510" y="217.3672"/><polygon fill="#181818" points="152,110.9609,162,114.9609,152,118.9609,156,114.9609" style="stroke:#181818;stroke-width:1.0;"/><line style="stroke:#181818;stroke-width:1.0;" x1="54" x2="158" y1="114.9609" y2="114.9609"/><text fill="#000000" font-family="sans-serif" font-size="13" lengthAdjust="spacing" textLength="91" x="61" y="110.1045">Orders Request</text><path d="M10,129.9609 L184,129.9609 L184,138.3125 L174,148.3125 L10,148.3125 L10,129.9609 " fill="#EEEEEE" style="stroke:#000000;stroke-width:1.5;"/><rect fill="none" height="512.1328" style="stroke:#000000;stroke-width:1.5;" width="576" x="10" y="129.9609"/><text fill="#000000" font-family="sans-serif" font-size="13" font-weight="bold" lengthAdjust="spacing" textLength="129" x="25" y="144.4561">Step: Authentication</text><polygon fill="#181818" points="312,183.0156,322,187.0156,312,191.0156,316,187.0156" style="stroke:#181818;stroke-width:1.0;"/><line style="stroke:#181818;stroke-width:1.0;" x1="174" x2="318" y1="187.0156" y2="187.0156"/><text fill="#000000" font-family="sans-serif" font-size="13" lengthAdjust="spacing" textLength="107" x="181" y="165.8076">GET /api/v1/orders</text><text fill="#000000" font-family="sans-serif" font-size="13" lengthAdjust="spacing" textLength="77" x="181" y="182.1592">Bearer Token</text><polygon fill="#181818" points="498,213.3672,508,217.3672,498,221.3672,502,217.3672" style="stroke:#181818;stroke-width:1.0;"/><line style="stroke:#181818;stroke-width:1.0;" x1="334" x2="504" y1="217.3672" y2="217.3672"/><text fill="#000000" font-family="sans-serif" font-size="13" lengthAdjust="spacing" textLength="112" x="341" y="212.5107">Authenticate Token</text><line style="stroke:#181818;stroke-width:1.0;stroke-dasharray:2.0,2.0;" x1="520" x2="562" y1="264.0703" y2="264.0703"/><line style="stroke:#181818;stroke-width:1.0;stroke-dasharray:2.0,2.0;" x1="562" x2="562" y1="264.0703" y2="277.0703"/><line style="stroke:#181818;stroke-width:1.0;stroke-dasharray:2.0,2.0;" x1="521" x2="562" y1="277.0703" y2="277.0703"/><polygon fill="#181818" points="531,273.0703,521,277.0703,531,281.0703,527,277.0703" style="stroke:#181818;stroke-width:1.0;"/><text fill="#000000" font-family="sans-serif" font-size="13" lengthAdjust="spacing" textLength="47" x="527" y="242.8623">Validate</text><text fill="#000000" font-family="sans-serif" font-size="13" lengthAdjust="spacing" textLength="35" x="527" y="259.2139">Token</text><polygon fill="#181818" points="345,303.4219,335,307.4219,345,311.4219,341,307.4219" style="stroke:#181818;stroke-width:1.0;"/><line style="stroke:#181818;stroke-width:1.0;" x1="339" x2="509" y1="307.4219" y2="307.4219"/><text fill="#000000" font-family="sans-serif" font-size="13" lengthAdjust="spacing" textLength="152" x="351" y="302.5654">Success: Token Validated</text><line style="stroke:#000000;stroke-width:1.0;stroke-dasharray:2.0,2.0;" x1="10" x2="586" y1="316.4219" y2="316.4219"/><text fill="#000000" font-family="sans-serif" font-size="11" font-weight="bold" lengthAdjust="spacing" textLength="123" x="15" y="327.8408">[Authentication Failed]</text><polygon fill="#181818" points="345,349.6094,335,353.6094,345,357.6094,341,353.6094" style="stroke:#181818;stroke-width:1.0;"/><line style="stroke:#181818;stroke-width:1.0;" x1="339" x2="514" y1="353.6094" y2="353.6094"/><text fill="#000000" font-family="sans-serif" font-size="13" lengthAdjust="spacing" textLength="116" x="351" y="348.7529">Fail: Request Failed</text><polygon fill="#181818" points="185,379.9609,175,383.9609,185,387.9609,181,383.9609" style="stroke:#181818;stroke-width:1.0;"/><line style="stroke:#181818;stroke-width:1.0;" x1="179" x2="323" y1="383.9609" y2="383.9609"/><text fill="#000000" font-family="sans-serif" font-size="13" lengthAdjust="spacing" textLength="126" x="191" y="379.1045">Authentication Failure</text><polygon fill="#181818" points="65,413.3125,55,417.3125,65,421.3125,61,417.3125" style="stroke:#181818;stroke-width:1.0;"/><line style="stroke:#181818;stroke-width:1.0;" x1="59" x2="163" y1="417.3125" y2="417.3125"/><text fill="#000000" font-family="sans-serif" font-size="13" lengthAdjust="spacing" textLength="68" x="71" y="412.4561">Logic Again</text><path d="M179,396.9609 L179,422.9609 L342,422.9609 L342,406.9609 L332,396.9609 L179,396.9609 " fill="#FEFFDD" style="stroke:#181818;stroke-width:0.5;"/><path d="M332,396.9609 L332,406.9609 L342,406.9609 L332,396.9609 " fill="#FEFFDD" style="stroke:#181818;stroke-width:0.5;"/><text fill="#000000" font-family="sans-serif" font-size="13" lengthAdjust="spacing" textLength="142" x="185" y="415.4561">Authentication has failed</text><line style="stroke:#000000;stroke-width:1.0;stroke-dasharray:2.0,2.0;" x1="10" x2="586" y1="429.3125" y2="429.3125"/><text fill="#000000" font-family="sans-serif" font-size="11" font-weight="bold" lengthAdjust="spacing" textLength="138" x="15" y="440.7314">[Authentication Failed 02]</text><polygon fill="#181818" points="345,462.5,335,466.5,345,470.5,341,466.5" style="stroke:#181818;stroke-width:1.0;"/><line style="stroke:#181818;stroke-width:1.0;" x1="339" x2="514" y1="466.5" y2="466.5"/><text fill="#000000" font-family="sans-serif" font-size="13" lengthAdjust="spacing" textLength="116" x="351" y="461.6436">Fail: Request Failed</text><polygon fill="#181818" points="185,492.8516,175,496.8516,185,500.8516,181,496.8516" style="stroke:#181818;stroke-width:1.0;"/><line style="stroke:#181818;stroke-width:1.0;" x1="179" x2="323" y1="496.8516" y2="496.8516"/><text fill="#000000" font-family="sans-serif" font-size="13" lengthAdjust="spacing" textLength="126" x="191" y="491.9951">Authentication Failure</text><polygon fill="#181818" points="65,523.2031,55,527.2031,65,531.2031,61,527.2031" style="stroke:#181818;stroke-width:1.0;"/><line style="stroke:#181818;stroke-width:1.0;" x1="59" x2="163" y1="527.2031" y2="527.2031"/><text fill="#000000" font-family="sans-serif" font-size="13" lengthAdjust="spacing" textLength="68" x="71" y="522.3467">Logic Again</text><line style="stroke:#000000;stroke-width:1.0;stroke-dasharray:2.0,2.0;" x1="10" x2="586" y1="536.2031" y2="536.2031"/><text fill="#000000" font-family="sans-serif" font-size="11" font-weight="bold" lengthAdjust="spacing" textLength="138" x="15" y="547.6221">[Authentication Failed 03]</text><polygon fill="#181818" points="345,569.3906,335,573.3906,345,577.3906,341,573.3906" style="stroke:#181818;stroke-width:1.0;"/><line style="stroke:#181818;stroke-width:1.0;" x1="339" x2="514" y1="573.3906" y2="573.3906"/><text fill="#000000" font-family="sans-serif" font-size="13" lengthAdjust="spacing" textLength="116" x="351" y="568.5342">Fail: Request Failed</text><polygon fill="#181818" points="185,599.7422,175,603.7422,185,607.7422,181,603.7422" style="stroke:#181818;stroke-width:1.0;"/><line style="stroke:#181818;stroke-width:1.0;" x1="179" x2="323" y1="603.7422" y2="603.7422"/><text fill="#000000" font-family="sans-serif" font-size="13" lengthAdjust="spacing" textLength="126" x="191" y="598.8857">Authentication Failure</text><polygon fill="#181818" points="65,630.0938,55,634.0938,65,638.0938,61,634.0938" style="stroke:#181818;stroke-width:1.0;"/><line style="stroke:#181818;stroke-width:1.0;" x1="59" x2="163" y1="634.0938" y2="634.0938"/><text fill="#000000" font-family="sans-serif" font-size="13" lengthAdjust="spacing" textLength="68" x="71" y="629.2373">Logic Again</text><polygon fill="#181818" points="65,667.4453,55,671.4453,65,675.4453,61,671.4453" style="stroke:#181818;stroke-width:1.0;"/><line style="stroke:#181818;stroke-width:1.0;" x1="59" x2="168" y1="671.4453" y2="671.4453"/><text fill="#000000" font-family="sans-serif" font-size="13" lengthAdjust="spacing" textLength="51" x="71" y="666.5889">Respond</text><!--MD5=[f88e27f68d540c409381a815d64c5f44]
@startuml TestDiagram

actor "Web User" as actor_WebUser
participant "Front End" as part_Portal
participant "Gateway" as part_Gateway
participant "Identity\nServer" as part_IdentityServer

actor_WebUser -> part_Portal ++: Orders Request

group Step: Authentication
    part_Portal -> part_Gateway ++: GET /api/v1/orders \nBearer Token
    part_Gateway -> part_IdentityServer ++: Authenticate Token
    part_IdentityServer - -> part_IdentityServer : Validate\nToken
    part_IdentityServer -> part_Gateway : Success: Token Validated
else Authentication Failed
    part_IdentityServer -> part_Gateway - -: Fail: Request Failed
    part_Gateway -> part_Portal : Authentication Failure
    part_Portal -> actor_WebUser : Logic Again
    note right: Authentication has failed
else Authentication Failed 02
    part_IdentityServer -> part_Gateway - -: Fail: Request Failed
    part_Gateway -> part_Portal : Authentication Failure
    part_Portal -> actor_WebUser : Logic Again
else Authentication Failed 03
    part_IdentityServer -> part_Gateway - -: Fail: Request Failed
    part_Gateway -> part_Portal : Authentication Failure
    part_Portal -> actor_WebUser : Logic Again
end

part_Portal -> actor_WebUser - -: Respond

@enduml

PlantUML version 1.2022.7(Mon Aug 22 10:01:30 PDT 2022)
(GPL source distribution)
Java Runtime: Java(TM) SE Runtime Environment
JVM: Java HotSpot(TM) Client VM
Default Encoding: Cp1252
Language: en
Country: US
--></g></svg>